# xmcd
#
# Track frame offsets:
# 150
# 17355
# 34936
# 50725
# 73730
# 97307
# 119396
# 140317
# 161370
# 177911
#
# Disc length: 2753 seconds
#
# Revision: 0
# Processed by: cddbd v1.4PL0 Copyright (c) Steve Scherf et al.
# Submitted via: Axialis_AX_CDPlayer 2.6
#
DISCID=880abf0a
DTITLE=Flash Harry - Red
DYEAR=1900
DGENRE=
TTITLE0=Living In A World Without Her
TTITLE1=Train Don't Leave
TTITLE2=On A Monday
TTITLE3=Highway 61 Revisited
TTITLE4=The Colour Of Money
TTITLE5=Mascara Tears
TTITLE6=Can't Be Satisfied
TTITLE7=Tear Stained Letter
TTITLE8=Sin Wagon
TTITLE9=Sally McLennan
EXTD=
EXTT0=
EXTT1=
EXTT2=
EXTT3=
EXTT4=
EXTT5=
EXTT6=
EXTT7=
EXTT8=
EXTT9=
PLAYORDER=
